<svg width="91" height="91" viewBox="0 0 91 91" fill="none" xmlns="http://www.w3.org/2000/svg">
<path d="M45.5 59.1956C53.0639 59.1956 59.1956 53.0639 59.1956 45.5C59.1956 37.9361 53.0639 31.8043 45.5 31.8043C37.9361 31.8043 31.8043 37.9361 31.8043 45.5C31.8043 53.0639 37.9361 59.1956 45.5 59.1956Z" stroke="#D9D9D9"/>
<path d="M0.499878 50.0654C0.499878 50.0654 10.2148 59.1958 18.1566 59.1958C23.5066 59.1958 29.6612 55.0524 33.1086 52.348" stroke="#D9D9D9"/>
<path d="M53.9783 55.6514C56.167 57.5473 59.0286 59.1958 62.362 59.1958C70.2079 59.1958 70.2079 50.0654 78.0534 50.0654C83.0578 50.0654 86.9977 53.7796 89.1957 56.4699" stroke="#D9D9D9"/>
<path d="M56.5869 22.674L63.1087 13.5435" stroke="#D9D9D9" stroke-linecap="round"/>
<path d="M77.8912 23.1087L80.4999 19.1957" stroke="#D9D9D9" stroke-linecap="round"/>
<path d="M44.8477 13.5435L40.9347 8.32611" stroke="#D9D9D9" stroke-linecap="round"/>
<path d="M38.3261 22.674L31.8043 23.9783" stroke="#D9D9D9" stroke-linecap="round"/>
<path d="M65.7174 31.8043L67.0218 38.3261" stroke="#D9D9D9" stroke-linecap="round"/>
<path d="M83.9782 37.0217L77.4564 43.5435" stroke="#D9D9D9" stroke-linecap="round"/>
<path d="M23.1086 13.9783L19.1956 10.0652" stroke="#D9D9D9" stroke-linecap="round"/>
<path d="M21.3696 31.8043L18.7609 26.5869" stroke="#D9D9D9" stroke-linecap="round"/>
<path d="M16.1521 48.7609L20.0651 42.2391" stroke="#D9D9D9" stroke-linecap="round"/>
<path d="M7.02173 37.0217V31.8043" stroke="#D9D9D9" stroke-linecap="round"/>
<path d="M23 84.4799C29.6189 88.3085 37.3037 90.5 45.5 90.5C70.3526 90.5 90.5 70.3526 90.5 45.5C90.5 20.6472 70.3526 0.5 45.5 0.5C20.6472 0.5 0.5 20.6472 0.5 45.5C0.5 53.6963 2.69137 61.3809 6.52019 68" stroke="#D9D9D9" stroke-linecap="round"/>
</svg>
