<svg width="51" height="33" viewBox="0 0 51 33" fill="none" xmlns="http://www.w3.org/2000/svg">
<path fill-rule="evenodd" clip-rule="evenodd" d="M15.8074 16.3808C15.8943 16.5901 16.0655 16.7514 16.2762 16.8231L24.8687 19.7421C24.9763 19.7786 25.0888 19.79 25.1983 19.7769C25.3025 19.7645 25.4039 19.7301 25.4956 19.6744L32.9565 15.1464C33.1561 15.0252 33.2891 14.8166 33.3175 14.5801C33.3459 14.3437 33.2665 14.1056 33.102 13.9341L22.9306 3.32954C22.7569 3.14851 22.5097 3.0632 22.266 3.10114C22.0228 3.13895 21.814 3.29498 21.7057 3.51986L15.8238 15.7334C15.7265 15.9353 15.7206 16.1716 15.8074 16.3808Z" fill="#FFCC02"/>
<path fill-rule="evenodd" clip-rule="evenodd" d="M25.6775 22.0343C25.6379 21.7409 25.4395 21.4936 25.1653 21.3959L2.51146 13.323C2.19728 13.211 1.85082 13.3187 1.65458 13.5893C1.45849 13.8599 1.45769 14.2314 1.65267 14.508L12.8596 30.4093C13.0291 30.6496 13.3064 30.765 13.5744 30.7331C13.6895 30.7194 13.8029 30.6784 13.9052 30.6085L25.352 22.78C25.5911 22.6166 25.7171 22.3277 25.6775 22.0343Z" fill="#EFAE07"/>
<path fill-rule="evenodd" clip-rule="evenodd" d="M47.1153 7.97087C46.8586 7.75106 46.4945 7.72485 46.2156 7.90611L13.2675 29.3118C12.9692 29.5056 12.8441 29.8853 12.9658 30.2283C13.0874 30.5713 13.4234 30.7845 13.7761 30.7443L39.3921 27.8165L39.3958 27.8161C39.6688 27.7835 39.902 27.6053 40.0051 27.3454L47.3372 8.86705C47.4617 8.55334 47.3719 8.19063 47.1153 7.97087Z" fill="#FFCC02"/>
</svg>
