<svg width="323" height="139" viewBox="0 0 323 139" fill="none" xmlns="http://www.w3.org/2000/svg">
<path d="M20.371 52.5V1.59091H37.5727C41.5666 1.59091 44.8313 2.31179 47.3668 3.75355C49.9188 5.17874 51.8081 7.10938 53.0344 9.54545C54.2607 11.9815 54.8739 14.6993 54.8739 17.6989C54.8739 20.6984 54.2607 23.4245 53.0344 25.8771C51.8246 28.3298 49.952 30.2853 47.4165 31.7436C44.881 33.1854 41.6329 33.9062 37.6722 33.9062H25.3426V28.4375H37.4733C40.2077 28.4375 42.4035 27.9652 44.0607 27.0206C45.7179 26.076 46.9193 24.8 47.6651 23.1925C48.4274 21.5684 48.8085 19.7372 48.8085 17.6989C48.8085 15.6605 48.4274 13.8376 47.6651 12.2301C46.9193 10.6226 45.7096 9.36316 44.0358 8.4517C42.362 7.52367 40.1414 7.05966 37.3739 7.05966H26.5358V52.5H20.371ZM70.345 53.3949C67.9254 53.3949 65.7297 52.9392 63.7576 52.0277C61.7855 51.0997 60.2195 49.7656 59.0594 48.0256C57.8994 46.2689 57.3194 44.1477 57.3194 41.6619C57.3194 39.4744 57.7503 37.7012 58.612 36.3423C59.4737 34.9669 60.6255 33.8897 62.0673 33.1108C63.509 32.3319 65.0999 31.7519 66.84 31.3707C68.5966 30.973 70.3615 30.6581 72.1347 30.4261C74.4548 30.1278 76.3357 29.9041 77.7775 29.755C79.2358 29.5893 80.2964 29.3158 80.9593 28.9347C81.6387 28.5535 81.9785 27.8906 81.9785 26.946V26.7472C81.9785 24.2945 81.3073 22.3887 79.965 21.0298C78.6392 19.6709 76.6257 18.9915 73.9245 18.9915C71.1238 18.9915 68.928 19.6046 67.3371 20.831C65.7462 22.0573 64.6276 23.3665 63.9813 24.7585L58.4131 22.7699C59.4075 20.4498 60.7332 18.6435 62.3904 17.3509C64.0642 16.0417 65.8871 15.1302 67.8592 14.6165C69.8478 14.0862 71.8033 13.821 73.7256 13.821C74.952 13.821 76.3606 13.9702 77.9515 14.2685C79.559 14.5502 81.1084 15.1385 82.5999 16.0334C84.108 16.9283 85.3592 18.2789 86.3535 20.0852C87.3478 21.8916 87.845 24.3111 87.845 27.3438V52.5H81.9785V47.3295H81.6802C81.2825 48.1581 80.6196 49.0447 79.6915 49.9893C78.7635 50.9339 77.5289 51.7377 75.9877 52.4006C74.4465 53.0634 72.5656 53.3949 70.345 53.3949ZM71.2398 48.125C73.5599 48.125 75.5154 47.6693 77.1063 46.7578C78.7138 45.8464 79.9235 44.6697 80.7356 43.228C81.5642 41.7862 81.9785 40.2699 81.9785 38.679V33.3097C81.7299 33.608 81.183 33.8814 80.3378 34.13C79.5093 34.362 78.5481 34.5691 77.4543 34.7514C76.3771 34.9171 75.3248 35.0663 74.2974 35.1989C73.2865 35.3149 72.4662 35.4143 71.8364 35.4972C70.3118 35.696 68.8866 36.0192 67.5609 36.4666C66.2517 36.8975 65.1911 37.5521 64.379 38.4304C63.5836 39.2921 63.1859 40.4687 63.1859 41.9602C63.1859 43.9986 63.9399 45.5398 65.4479 46.5838C66.9726 47.6113 68.9032 48.125 71.2398 48.125ZM109.064 67.6136C106.231 67.6136 103.795 67.2491 101.756 66.5199C99.7179 65.8073 98.0192 64.8627 96.6603 63.6861C95.318 62.526 94.2491 61.2831 93.4537 59.9574L98.127 56.6761C98.6573 57.3722 99.3284 58.1676 100.14 59.0625C100.952 59.974 102.063 60.7611 103.471 61.424C104.897 62.1035 106.761 62.4432 109.064 62.4432C112.147 62.4432 114.691 61.6974 116.696 60.206C118.701 58.7145 119.704 56.3778 119.704 53.196V45.4403H119.206C118.776 46.1364 118.162 46.9981 117.367 48.0256C116.588 49.0365 115.461 49.9396 113.986 50.7351C112.528 51.514 110.556 51.9034 108.07 51.9034C104.988 51.9034 102.22 51.1742 99.7676 49.7159C97.3315 48.2576 95.4009 46.1364 93.9757 43.3523C92.5671 40.5682 91.8627 37.1875 91.8627 33.2102C91.8627 29.2992 92.5505 25.8937 93.926 22.9936C95.3014 20.0769 97.2155 17.8232 99.6681 16.2322C102.121 14.6248 104.955 13.821 108.17 13.821C110.655 13.821 112.627 14.2353 114.086 15.0639C115.561 15.8759 116.688 16.804 117.466 17.848C118.262 18.8755 118.875 19.7206 119.306 20.3835H119.903V14.3182H125.57V53.5938C125.57 56.875 124.824 59.5431 123.333 61.598C121.858 63.6695 119.869 65.1858 117.367 66.147C114.881 67.1248 112.114 67.6136 109.064 67.6136ZM108.866 46.6335C111.219 46.6335 113.207 46.0949 114.831 45.0178C116.456 43.9406 117.69 42.3911 118.535 40.3693C119.381 38.3475 119.803 35.928 119.803 33.1108C119.803 30.3598 119.389 27.9321 118.56 25.8274C117.732 23.7228 116.505 22.0739 114.881 20.8807C113.257 19.6875 111.252 19.0909 108.866 19.0909C106.38 19.0909 104.308 19.7206 102.651 20.9801C101.01 22.2396 99.7759 23.9299 98.9473 26.0511C98.1352 28.1723 97.7292 30.5256 97.7292 33.1108C97.7292 35.7623 98.1435 38.1072 98.9721 40.1456C99.8173 42.1674 101.06 43.7583 102.701 44.9183C104.358 46.0618 106.413 46.6335 108.866 46.6335ZM131.409 52.5V14.3182H137.275V52.5H131.409ZM134.392 7.95455C133.248 7.95455 132.262 7.5651 131.434 6.78622C130.622 6.00734 130.216 5.07102 130.216 3.97727C130.216 2.88352 130.622 1.94721 131.434 1.16832C132.262 0.389441 133.248 0 134.392 0C135.535 0 136.513 0.389441 137.325 1.16832C138.154 1.94721 138.568 2.88352 138.568 3.97727C138.568 5.07102 138.154 6.00734 137.325 6.78622C136.513 7.5651 135.535 7.95455 134.392 7.95455ZM148.987 29.5312V52.5H143.12V14.3182H148.788V20.2841H149.285C150.18 18.3452 151.539 16.7874 153.362 15.6108C155.185 14.4176 157.538 13.821 160.421 13.821C163.006 13.821 165.269 14.3513 167.207 15.4119C169.146 16.456 170.654 18.0469 171.732 20.1847C172.809 22.3059 173.347 24.9905 173.347 28.2386V52.5H167.481V28.6364C167.481 25.6368 166.702 23.3002 165.144 21.6264C163.586 19.9361 161.449 19.0909 158.731 19.0909C156.858 19.0909 155.185 19.4969 153.71 20.3089C152.251 21.121 151.1 22.3059 150.254 23.8636C149.409 25.4214 148.987 27.3106 148.987 29.5312ZM190.403 53.3949C187.984 53.3949 185.788 52.9392 183.816 52.0277C181.844 51.0997 180.278 49.7656 179.118 48.0256C177.958 46.2689 177.378 44.1477 177.378 41.6619C177.378 39.4744 177.808 37.7012 178.67 36.3423C179.532 34.9669 180.684 33.8897 182.125 33.1108C183.567 32.3319 185.158 31.7519 186.898 31.3707C188.655 30.973 190.42 30.6581 192.193 30.4261C194.513 30.1278 196.394 29.9041 197.836 29.755C199.294 29.5893 200.355 29.3158 201.017 28.9347C201.697 28.5535 202.037 27.8906 202.037 26.946V26.7472C202.037 24.2945 201.366 22.3887 200.023 21.0298C198.697 19.6709 196.684 18.9915 193.983 18.9915C191.182 18.9915 188.986 19.6046 187.395 20.831C185.804 22.0573 184.686 23.3665 184.04 24.7585L178.471 22.7699C179.466 20.4498 180.791 18.6435 182.449 17.3509C184.122 16.0417 185.945 15.1302 187.917 14.6165C189.906 14.0862 191.861 13.821 193.784 13.821C195.01 13.821 196.419 13.9702 198.01 14.2685C199.617 14.5502 201.167 15.1385 202.658 16.0334C204.166 16.9283 205.417 18.2789 206.412 20.0852C207.406 21.8916 207.903 24.3111 207.903 27.3438V52.5H202.037V47.3295H201.738C201.341 48.1581 200.678 49.0447 199.75 49.9893C198.822 50.9339 197.587 51.7377 196.046 52.4006C194.505 53.0634 192.624 53.3949 190.403 53.3949ZM191.298 48.125C193.618 48.125 195.574 47.6693 197.165 46.7578C198.772 45.8464 199.982 44.6697 200.794 43.228C201.622 41.7862 202.037 40.2699 202.037 38.679V33.3097C201.788 33.608 201.241 33.8814 200.396 34.13C199.567 34.362 198.606 34.5691 197.513 34.7514C196.435 34.9171 195.383 35.0663 194.356 35.1989C193.345 35.3149 192.524 35.4143 191.895 35.4972C190.37 35.696 188.945 36.0192 187.619 36.4666C186.31 36.8975 185.249 37.5521 184.437 38.4304C183.642 39.2921 183.244 40.4687 183.244 41.9602C183.244 43.9986 183.998 45.5398 185.506 46.5838C187.031 47.6113 188.961 48.125 191.298 48.125ZM269.663 1.59091V52.5H263.697L235.956 12.5284H235.458V52.5H229.294V1.59091H235.26L263.1 41.6619H263.598V1.59091H269.663ZM291.815 53.2955C288.368 53.2955 285.343 52.4751 282.741 50.8345C280.156 49.1939 278.134 46.8987 276.676 43.9489C275.234 40.9991 274.514 37.5521 274.514 33.608C274.514 29.6307 275.234 26.1589 276.676 23.1925C278.134 20.2261 280.156 17.9226 282.741 16.282C285.343 14.6413 288.368 13.821 291.815 13.821C295.262 13.821 298.278 14.6413 300.863 16.282C303.465 17.9226 305.487 20.2261 306.928 23.1925C308.387 26.1589 309.116 29.6307 309.116 33.608C309.116 37.5521 308.387 40.9991 306.928 43.9489C305.487 46.8987 303.465 49.1939 300.863 50.8345C298.278 52.4751 295.262 53.2955 291.815 53.2955ZM291.815 48.0256C294.433 48.0256 296.587 47.3544 298.278 46.0121C299.968 44.6697 301.219 42.9048 302.031 40.7173C302.843 38.5298 303.249 36.16 303.249 33.608C303.249 31.0559 302.843 28.6778 302.031 26.4737C301.219 24.2696 299.968 22.4882 298.278 21.1293C296.587 19.7704 294.433 19.0909 291.815 19.0909C289.196 19.0909 287.042 19.7704 285.352 21.1293C283.661 22.4882 282.41 24.2696 281.598 26.4737C280.786 28.6778 280.38 31.0559 280.38 33.608C280.38 36.16 280.786 38.5298 281.598 40.7173C282.41 42.9048 283.661 44.6697 285.352 46.0121C287.042 47.3544 289.196 48.0256 291.815 48.0256ZM-6.75917e-05 137.5V86.5909H30.7244V92.0597H6.16471V109.261H29.1335V114.73H6.16471V132.031H31.1221V137.5H-6.75917e-05ZM42.0069 114.531V137.5H36.1404V99.3182H41.808V105.284H42.3052C43.2001 103.345 44.559 101.787 46.3819 100.611C48.2048 99.4176 50.558 98.821 53.4415 98.821C56.0268 98.821 58.2888 99.3513 60.2278 100.412C62.1667 101.456 63.6747 103.047 64.7519 105.185C65.8291 107.306 66.3677 109.991 66.3677 113.239V137.5H60.5012V113.636C60.5012 110.637 59.7223 108.3 58.1646 106.626C56.6068 104.936 54.469 104.091 51.7512 104.091C49.8786 104.091 48.2048 104.497 46.7299 105.309C45.2716 106.121 44.1198 107.306 43.2746 108.864C42.4295 110.421 42.0069 112.311 42.0069 114.531ZM87.699 138.295C84.1195 138.295 81.0371 137.45 78.4519 135.76C75.8667 134.07 73.878 131.741 72.486 128.775C71.0939 125.808 70.3979 122.42 70.3979 118.608C70.3979 114.73 71.1105 111.308 72.5357 108.342C73.9775 105.359 75.9827 103.03 78.5513 101.357C81.1365 99.6662 84.1526 98.821 87.5996 98.821C90.2843 98.821 92.7038 99.3182 94.8581 100.312C97.0125 101.307 98.7774 102.699 100.153 104.489C101.528 106.278 102.382 108.366 102.713 110.753H96.8468C96.3993 109.013 95.405 107.472 93.8638 106.129C92.3392 104.77 90.2843 104.091 87.699 104.091C85.4121 104.091 83.4069 104.687 81.6834 105.881C79.9765 107.057 78.6425 108.723 77.6813 110.877C76.7367 113.015 76.2644 115.526 76.2644 118.409C76.2644 121.359 76.7284 123.928 77.6564 126.115C78.601 128.303 79.9268 130.001 81.6337 131.211C83.3572 132.421 85.379 133.026 87.699 133.026C89.2237 133.026 90.6074 132.76 91.8503 132.23C93.0932 131.7 94.1455 130.938 95.0073 129.943C95.869 128.949 96.4822 127.756 96.8468 126.364H102.713C102.382 128.617 101.561 130.647 100.252 132.454C98.9597 134.244 97.2445 135.669 95.1067 136.729C92.9855 137.773 90.5163 138.295 87.699 138.295ZM121.901 138.295C118.454 138.295 115.429 137.475 112.827 135.835C110.242 134.194 108.22 131.899 106.762 128.949C105.32 125.999 104.599 122.552 104.599 118.608C104.599 114.631 105.32 111.159 106.762 108.192C108.22 105.226 110.242 102.923 112.827 101.282C115.429 99.6413 118.454 98.821 121.901 98.821C125.348 98.821 128.364 99.6413 130.949 101.282C133.551 102.923 135.572 105.226 137.014 108.192C138.473 111.159 139.202 114.631 139.202 118.608C139.202 122.552 138.473 125.999 137.014 128.949C135.572 131.899 133.551 134.194 130.949 135.835C128.364 137.475 125.348 138.295 121.901 138.295ZM121.901 133.026C124.519 133.026 126.673 132.354 128.364 131.012C130.054 129.67 131.305 127.905 132.117 125.717C132.929 123.53 133.335 121.16 133.335 118.608C133.335 116.056 132.929 113.678 132.117 111.474C131.305 109.27 130.054 107.488 128.364 106.129C126.673 104.77 124.519 104.091 121.901 104.091C119.282 104.091 117.128 104.77 115.438 106.129C113.747 107.488 112.496 109.27 111.684 111.474C110.872 113.678 110.466 116.056 110.466 118.608C110.466 121.16 110.872 123.53 111.684 125.717C112.496 127.905 113.747 129.67 115.438 131.012C117.128 132.354 119.282 133.026 121.901 133.026ZM149.123 114.531V137.5H143.257V99.3182H148.924V105.284H149.422C150.316 103.345 151.675 101.787 153.498 100.611C155.321 99.4176 157.674 98.821 160.558 98.821C163.143 98.821 165.405 99.3513 167.344 100.412C169.283 101.456 170.791 103.047 171.868 105.185C172.946 107.306 173.484 109.991 173.484 113.239V137.5H167.618V113.636C167.618 110.637 166.839 108.3 165.281 106.626C163.723 104.936 161.585 104.091 158.868 104.091C156.995 104.091 155.321 104.497 153.846 105.309C152.388 106.121 151.236 107.306 150.391 108.864C149.546 110.421 149.123 112.311 149.123 114.531ZM195.909 99.3182V104.29H176.122V99.3182H195.909ZM181.889 90.1705H187.756V126.562C187.756 128.22 187.996 129.463 188.477 130.291C188.974 131.103 189.604 131.65 190.366 131.932C191.145 132.197 191.965 132.33 192.827 132.33C193.473 132.33 194.003 132.296 194.418 132.23C194.832 132.147 195.163 132.081 195.412 132.031L196.605 137.301C196.207 137.45 195.652 137.599 194.94 137.749C194.227 137.914 193.324 137.997 192.23 137.997C190.573 137.997 188.949 137.641 187.358 136.928C185.784 136.216 184.475 135.13 183.43 133.672C182.403 132.214 181.889 130.374 181.889 128.153V90.1705ZM199.834 137.5V99.3182H205.501V105.085H205.899C206.595 103.196 207.855 101.663 209.678 100.487C211.5 99.3099 213.555 98.7216 215.842 98.7216C216.273 98.7216 216.812 98.7299 217.458 98.7464C218.104 98.763 218.593 98.7879 218.925 98.821V104.787C218.726 104.737 218.27 104.663 217.558 104.563C216.861 104.447 216.124 104.389 215.345 104.389C213.489 104.389 211.832 104.779 210.374 105.558C208.932 106.32 207.788 107.38 206.943 108.739C206.115 110.082 205.7 111.615 205.7 113.338V137.5H199.834ZM232.214 138.395C229.795 138.395 227.599 137.939 225.627 137.028C223.655 136.1 222.089 134.766 220.929 133.026C219.769 131.269 219.189 129.148 219.189 126.662C219.189 124.474 219.62 122.701 220.482 121.342C221.343 119.967 222.495 118.89 223.937 118.111C225.379 117.332 226.969 116.752 228.71 116.371C230.466 115.973 232.231 115.658 234.004 115.426C236.324 115.128 238.205 114.904 239.647 114.755C241.105 114.589 242.166 114.316 242.829 113.935C243.508 113.554 243.848 112.891 243.848 111.946V111.747C243.848 109.295 243.177 107.389 241.835 106.03C240.509 104.671 238.495 103.991 235.794 103.991C232.993 103.991 230.798 104.605 229.207 105.831C227.616 107.057 226.497 108.366 225.851 109.759L220.283 107.77C221.277 105.45 222.603 103.643 224.26 102.351C225.934 101.042 227.757 100.13 229.729 99.6165C231.717 99.0862 233.673 98.821 235.595 98.821C236.821 98.821 238.23 98.9702 239.821 99.2685C241.429 99.5502 242.978 100.138 244.469 101.033C245.978 101.928 247.229 103.279 248.223 105.085C249.217 106.892 249.714 109.311 249.714 112.344V137.5H243.848V132.33H243.55C243.152 133.158 242.489 134.045 241.561 134.989C240.633 135.934 239.398 136.738 237.857 137.401C236.316 138.063 234.435 138.395 232.214 138.395ZM233.109 133.125C235.429 133.125 237.385 132.669 238.976 131.758C240.583 130.846 241.793 129.67 242.605 128.228C243.434 126.786 243.848 125.27 243.848 123.679V118.31C243.599 118.608 243.053 118.881 242.207 119.13C241.379 119.362 240.418 119.569 239.324 119.751C238.247 119.917 237.194 120.066 236.167 120.199C235.156 120.315 234.336 120.414 233.706 120.497C232.181 120.696 230.756 121.019 229.43 121.467C228.121 121.897 227.061 122.552 226.249 123.43C225.453 124.292 225.055 125.469 225.055 126.96C225.055 128.999 225.809 130.54 227.317 131.584C228.842 132.611 230.773 133.125 233.109 133.125ZM269.94 138.295C266.758 138.295 263.949 137.492 261.513 135.884C259.077 134.26 257.171 131.973 255.795 129.023C254.42 126.057 253.732 122.552 253.732 118.509C253.732 114.498 254.42 111.018 255.795 108.068C257.171 105.118 259.085 102.84 261.538 101.232C263.99 99.6248 266.824 98.821 270.039 98.821C272.525 98.821 274.489 99.2353 275.93 100.064C277.389 100.876 278.499 101.804 279.261 102.848C280.04 103.875 280.645 104.721 281.076 105.384H281.573V86.5909H287.44V137.5H281.772V131.634H281.076C280.645 132.33 280.032 133.208 279.237 134.268C278.441 135.312 277.306 136.249 275.831 137.077C274.356 137.889 272.392 138.295 269.94 138.295ZM270.735 133.026C273.088 133.026 275.077 132.412 276.701 131.186C278.325 129.943 279.56 128.228 280.405 126.04C281.25 123.836 281.673 121.293 281.673 118.409C281.673 115.559 281.258 113.065 280.43 110.927C279.601 108.772 278.375 107.099 276.751 105.906C275.127 104.696 273.121 104.091 270.735 104.091C268.249 104.091 266.178 104.729 264.521 106.005C262.88 107.264 261.645 108.98 260.817 111.151C260.005 113.305 259.599 115.724 259.599 118.409C259.599 121.127 260.013 123.596 260.842 125.817C261.687 128.021 262.93 129.777 264.57 131.087C266.228 132.379 268.282 133.026 270.735 133.026ZM305.334 138.395C302.915 138.395 300.719 137.939 298.747 137.028C296.775 136.1 295.209 134.766 294.049 133.026C292.889 131.269 292.309 129.148 292.309 126.662C292.309 124.474 292.74 122.701 293.601 121.342C294.463 119.967 295.615 118.89 297.057 118.111C298.498 117.332 300.089 116.752 301.829 116.371C303.586 115.973 305.351 115.658 307.124 115.426C309.444 115.128 311.325 114.904 312.767 114.755C314.225 114.589 315.286 114.316 315.949 113.935C316.628 113.554 316.968 112.891 316.968 111.946V111.747C316.968 109.295 316.297 107.389 314.954 106.03C313.629 104.671 311.615 103.991 308.914 103.991C306.113 103.991 303.918 104.605 302.327 105.831C300.736 107.057 299.617 108.366 298.971 109.759L293.403 107.77C294.397 105.45 295.723 103.643 297.38 102.351C299.054 101.042 300.877 100.13 302.849 99.6165C304.837 99.0862 306.793 98.821 308.715 98.821C309.941 98.821 311.35 98.9702 312.941 99.2685C314.548 99.5502 316.098 100.138 317.589 101.033C319.097 101.928 320.349 103.279 321.343 105.085C322.337 106.892 322.834 109.311 322.834 112.344V137.5H316.968V132.33H316.67C316.272 133.158 315.609 134.045 314.681 134.989C313.753 135.934 312.518 136.738 310.977 137.401C309.436 138.063 307.555 138.395 305.334 138.395ZM306.229 133.125C308.549 133.125 310.505 132.669 312.096 131.758C313.703 130.846 314.913 129.67 315.725 128.228C316.554 126.786 316.968 125.27 316.968 123.679V118.31C316.719 118.608 316.172 118.881 315.327 119.13C314.499 119.362 313.538 119.569 312.444 119.751C311.367 119.917 310.314 120.066 309.287 120.199C308.276 120.315 307.456 120.414 306.826 120.497C305.301 120.696 303.876 121.019 302.55 121.467C301.241 121.897 300.181 122.552 299.369 123.43C298.573 124.292 298.175 125.469 298.175 126.96C298.175 128.999 298.929 130.54 300.437 131.584C301.962 132.611 303.893 133.125 306.229 133.125Z" fill="#E8E8E8"/>
</svg>
